HIERARCHY
ROOT root
{
	OFFSET	0	13.1	24.9
	CHANNELS 6  Xposition Yposition Zposition Xrotation Yrotation Zrotation
	JOINT spine_1
	{
		OFFSET	0	9.99999	0
		CHANNELS 3  Xrotation Yrotation Zrotation
		JOINT spine_2
		{
			OFFSET	0	112	-10
			CHANNELS 3  Xrotation Yrotation Zrotation
			JOINT spine_3
			{
				OFFSET	0	206.5	19.3
				CHANNELS 3  Xrotation Yrotation Zrotation
				JOINT spine_4
				{
					OFFSET	0	110.4	14.6
					CHANNELS 3  Xrotation Yrotation Zrotation
					JOINT neck_1
					{
						OFFSET	0	71.8	-50.3
						CHANNELS 3  Xrotation Yrotation Zrotation
						JOINT neck_2
						{
							OFFSET	0	86.2	-25.8
							CHANNELS 3  Xrotation Yrotation Zrotation
							JOINT head_ee
							{
								OFFSET	0	179.8	-8.7
								CHANNELS 3  Xrotation Yrotation Zrotation
								End Site
								{
									OFFSET	1	0	0
								}
							}
						}
					}
					JOINT left_clavicle
					{
						OFFSET	-43.2	22.4	-70.8
						CHANNELS 3  Xrotation Yrotation Zrotation
						JOINT left_shoulder
						{
							OFFSET	-93.9	-5.79999	48.7
							CHANNELS 3  Xrotation Yrotation Zrotation
							JOINT left_elbow
							{
								OFFSET	-291.4	-30.8	15.2
								CHANNELS 3  Xrotation Yrotation Zrotation
								JOINT left_lowarm_twist
								{
									OFFSET	-110.7	-3.89999	13.6
									CHANNELS 3  Xrotation Yrotation Zrotation
									JOINT left_hand
									{
										OFFSET	-110.7	-3.89999	13.6
										CHANNELS 3  Xrotation Yrotation Zrotation
										JOINT left_ee
										{
											OFFSET	-80.8	-5.10001	12.1
											CHANNELS 3  Xrotation Yrotation Zrotation
											End Site
											{
												OFFSET	1	0	0
											}
										}
									}
								}
							}
						}
					}
					JOINT right_clavicle
					{
						OFFSET	43.2	22.4	-70.8
						CHANNELS 3  Xrotation Yrotation Zrotation
						JOINT right_shoulder
						{
							OFFSET	93.9	-5.79999	48.7
							CHANNELS 3  Xrotation Yrotation Zrotation
							JOINT right_elbow
							{
								OFFSET	291.4	-30.8	15.2
								CHANNELS 3  Xrotation Yrotation Zrotation
								JOINT right_lowarm_twist
								{
									OFFSET	110.7	-3.89999	13.6
									CHANNELS 3  Xrotation Yrotation Zrotation
									JOINT right_hand
									{
										OFFSET	110.7	-3.89999	13.6
										CHANNELS 3  Xrotation Yrotation Zrotation
										JOINT right_ee
										{
											OFFSET	80.8	-5.10001	12.1
											CHANNELS 3  Xrotation Yrotation Zrotation
											End Site
											{
												OFFSET	1	0	0
											}
										}
									}
								}
							}
						}
					}
				}
			}
		}
	}
	JOINT left_hip
	{
		OFFSET	-82.8	-127.5	0.300001
		CHANNELS 3  Xrotation Yrotation Zrotation
		JOINT left_knee
		{
			OFFSET	-28.2	-396.7	2.2
			CHANNELS 3  Xrotation Yrotation Zrotation
			JOINT left_ankle
			{
				OFFSET	-11.7	-411.3	35.4
				CHANNELS 3  Xrotation Yrotation Zrotation
				JOINT left_toes
				{
					OFFSET	0	-60	-88.6
					CHANNELS 3  Xrotation Yrotation Zrotation
					JOINT left_foot_ee
					{
						OFFSET	-22.5	-16.5	-42.2
						CHANNELS 3  Xrotation Yrotation Zrotation
						End Site
						{
							OFFSET	1	0	0
						}
					}
				}
			}
		}
	}
	JOINT right_hip
	{
		OFFSET	82.8	-127.5	0.300001
		CHANNELS 3  Xrotation Yrotation Zrotation
		JOINT right_knee
		{
			OFFSET	28.2	-396.7	2.2
			CHANNELS 3  Xrotation Yrotation Zrotation
			JOINT right_ankle
			{
				OFFSET	11.7	-411.3	35.4
				CHANNELS 3  Xrotation Yrotation Zrotation
				JOINT right_toes
				{
					OFFSET	0	-60	-88.6
					CHANNELS 3  Xrotation Yrotation Zrotation
					JOINT right_foot_ee
					{
						OFFSET	22.5	-16.5	-42.2
						CHANNELS 3  Xrotation Yrotation Zrotation
						End Site
						{
							OFFSET	1	0	0
						}
					}
				}
			}
		}
	}
}
MOTION
Frames: 5
Frame Time: 0.02
3151.61 660.754 -697.675 -26.6879 38.1012 24.1324 7.86022 0.0615208 -0.870328 7.86063 0.116775 -0.86465 7.85823 0.180914 -0.853539 7.85721 0.0438485 -0.871397 -7.22745 7.92466 -2.78093 -7.19901 16.7318 -1.13938 -0.0 0.0 -0.0 2.46045 16.4015 5.78069 -0.195324 -28.8327 56.7675 1.88797 -43.0792 0.745257 47.3323 -0.784517 -5.82582 1.74919 -9.0063 8.00996 -0.0 0.0 -0.0 11.4718 10.8951 -23.085 -22.9277 -27.6427 -63.0473 0.204151 5.77486 -0.0102969 29.478 -0.0821947 3.72345 2.68068 9.9927 -13.9798 0.0 0.0 0.0 20.2774 44.662 -13.3568 -26.2293 0.169927 3.98653 36.293 -32.3245 -5.70633 -8.98902 0.0 0.0 -0.0 0.0 -0.0 70.1749 36.7831 -28.572 -15.8794 -0.321947 -2.4078 7.24518 -8.83259 1.03935 13.3468 -0.0 -0.0 0.0 0.0 0.0 
3128.01 662.228 -707.069 -26.7672 37.4026 24.012 7.89206 0.0744287 -1.06517 7.89268 0.142054 -1.05828 7.88909 0.220006 -1.04486 7.88757 0.0522384 -1.06649 -6.57398 8.22532 -2.92091 -6.51973 17.3707 -1.31864 -0.0 0.0 -0.0 2.05746 17.3399 5.20362 -2.66728 -28.1864 58.2727 1.84366 -42.4011 0.715179 45.5313 -0.667781 -5.62706 1.72628 -7.83758 8.35691 -0.0 0.0 -0.0 11.6057 9.79465 -23.3885 -21.5509 -28.8123 -61.6553 0.20079 5.68042 -0.00996158 29.3511 -0.0859533 3.70768 2.4783 9.25891 -12.9035 0.0 0.0 0.0 20.1842 44.4137 -13.646 -28.0004 0.115448 4.25287 35.4647 -32.4078 -5.62074 -7.80941 0.0 0.0 -0.0 0.0 -0.0 68.6176 36.1896 -27.8777 -15.9689 -0.321858 -2.42154 9.1733 -8.19065 1.30759 13.4685 -0.0 -0.0 0.0 0.0 0.0 
3101.14 663.388 -715.332 -26.5787 36.7695 23.6966 7.97572 -0.000328543 -1.38952 7.97679 0.0880825 -1.38673 7.97293 0.188485 -1.37668 7.97029 -0.0312798 -1.38917 -6.02827 8.34589 -2.36922 -5.96726 17.1709 -0.821557 -0.0 0.0 -0.0 1.82105 19.1908 4.9565 -5.64355 -27.5441 60.2318 1.82201 -42.0644 0.70063 44.5202 -0.605013 -5.51393 1.7739 -7.44301 8.85089 -0.0 0.0 -0.0 11.4204 11.0734 -22.9682 -19.9707 -29.8203 -61.5083 0.208203 5.88869 -0.0107087 29.8081 -0.0722465 3.76444 2.36079 9.13735 -12.1452 0.0 0.0 0.0 20.1101 44.8049 -13.4485 -29.8675 0.04912 4.53173 34.4636 -32.0222 -5.47839 -7.64549 0.0 0.0 -0.0 0.0 -0.0 66.9975 36.3414 -27.0868 -16.7792 -0.32008 -2.54585 9.26925 -8.25137 1.32085 13.7239 -0.0 -0.0 0.0 0.0 0.0 
3066.44 672.023 -725.08 -25.5867 36.075 22.5775 8.02217 0.0730103 -1.67181 8.0237 0.179229 -1.66378 8.01603 0.298312 -1.64661 8.01225 0.0345551 -1.67305 -5.70769 8.28624 -2.93689 -5.62221 17.4645 -1.45808 -0.0 0.0 -0.0 2.5661 22.8093 6.21105 -8.55686 -25.567 61.7128 1.57119 -37.8917 0.539373 42.5299 -0.48735 -5.2881 1.71792 -6.88894 8.70506 -0.0 0.0 -0.0 11.8429 11.0038 -23.92 -15.7134 -29.1242 -59.6043 0.266177 7.51166 -0.0174734 30.5246 -0.0498421 3.85322 2.28622 9.27812 -11.5692 0.0 0.0 0.0 21.6228 41.6962 -12.1431 -35.0813 -0.183852 5.29756 36.8802 -32.1102 -5.7538 -6.98676 0.0 0.0 -0.0 0.0 -0.0 63.8695 36.2169 -26.1183 -18.1704 -0.312928 -2.75918 11.4086 -8.53386 1.61371 13.9974 -0.0 -0.0 0.0 0.0 0.0 
3039.76 677.209 -731.577 -24.964 36.0727 22.1786 7.91382 -0.0398201 -1.91281 7.91585 0.0819553 -1.91147 7.90984 0.222582 -1.90024 7.90481 -0.080262 -1.91154 -6.00285 7.81603 -2.09619 -5.95119 15.9898 -0.648947 -0.0 0.0 -0.0 2.20367 22.7939 5.70459 -12.1646 -25.0084 63.5648 1.4622 -35.9147 0.473916 41.6153 -0.435937 -5.183 1.77395 -7.0773 9.00743 -0.0 0.0 -0.0 11.8889 13.6993 -23.983 -14.2783 -27.6698 -59.8768 0.309696 8.72218 -0.0236184 30.872 -0.0385817 3.89616 2.21542 9.11772 -11.1524 0.0 0.0 0.0 23.4645 43.0614 -13.0151 -37.2896 -0.303399 5.61509 35.5477 -31.9104 -5.59287 -7.04457 0.0 0.0 -0.0 0.0 -0.0 60.9958 36.6376 -25.0897 -18.7666 -0.308276 -2.85054 9.54296 -9.06369 1.35884 13.6546 -0.0 -0.0 0.0 0.0 0.0 
